<?xml version="1.0" encoding="UTF-8" standalone="no"?>
<svg
   version="1.1"
   id="svg8934"
   viewBox="0 0 1062.9921 354.33071"
   height="100mm"
   width="300mm"
   sodipodi:docname="logo-164x52.svg"
   inkscape:version="1.2.1 (9c6d41e, 2022-07-14)"
   xmlns:inkscape="http://www.inkscape.org/namespaces/inkscape"
   xmlns:sodipodi="http://sodipodi.sourceforge.net/DTD/sodipodi-0.dtd"
   xmlns:xlink="http://www.w3.org/1999/xlink"
   xmlns="http://www.w3.org/2000/svg"
   xmlns:svg="http://www.w3.org/2000/svg"
   xmlns:rdf="http://www.w3.org/1999/02/22-rdf-syntax-ns#"
   xmlns:cc="http://creativecommons.org/ns#"
   xmlns:dc="http://purl.org/dc/elements/1.1/"
   xmlns:osb="http://www.openswatchbook.org/uri/2009/osb">
  <sodipodi:namedview
     id="namedview81"
     pagecolor="#ffffff"
     bordercolor="#000000"
     borderopacity="0.25"
     inkscape:showpageshadow="2"
     inkscape:pageopacity="0.0"
     inkscape:pagecheckerboard="0"
     inkscape:deskcolor="#d1d1d1"
     inkscape:document-units="mm"
     showgrid="false"
     inkscape:zoom="0.38587181"
     inkscape:cx="931.65655"
     inkscape:cy="558.47562"
     inkscape:window-width="1512"
     inkscape:window-height="839"
     inkscape:window-x="0"
     inkscape:window-y="38"
     inkscape:window-maximized="0"
     inkscape:current-layer="layer1" />
  <defs
     id="defs8936">
    <linearGradient
       osb:paint="solid"
       id="linearGradient6089">
      <stop
         id="stop6091"
         offset="0"
         style="stop-color:#00a8de;stop-opacity:1;" />
    </linearGradient>
    <linearGradient
       y2="798.25195"
       x2="1027.3469"
       y1="798.25195"
       x1="724.39453"
       gradientTransform="translate(-168,10)"
       gradientUnits="userSpaceOnUse"
       id="linearGradient7949"
       xlink:href="#linearGradient6089" />
    <linearGradient
       osb:paint="solid"
       id="linearGradient6427">
      <stop
         id="stop6429"
         offset="0"
         style="stop-color:#ff9f36;stop-opacity:1;" />
    </linearGradient>
    <linearGradient
       y2="931.61133"
       x2="762.62695"
       y1="931.61133"
       x1="542.98828"
       gradientTransform="translate(12,-10)"
       gradientUnits="userSpaceOnUse"
       id="linearGradient8001"
       xlink:href="#linearGradient6427" />
    <linearGradient
       y2="905.43945"
       x2="509.96094"
       y1="905.43945"
       x1="482.51953"
       gradientTransform="translate(10,30)"
       gradientUnits="userSpaceOnUse"
       id="linearGradient8013"
       xlink:href="#linearGradient6427" />
    <linearGradient
       y2="876.60889"
       x2="888.59961"
       y1="876.60889"
       x1="186.39453"
       gradientUnits="userSpaceOnUse"
       id="linearGradient9658"
       xlink:href="#linearGradient6089" />
    <linearGradient
       y2="944.85425"
       x2="467.42188"
       y1="944.85425"
       x1="211.40625"
       gradientUnits="userSpaceOnUse"
       id="linearGradient9670"
       xlink:href="#linearGradient6427" />
    <linearGradient
       y2="876.60889"
       x2="888.59961"
       y1="876.60889"
       x1="186.39453"
       gradientUnits="userSpaceOnUse"
       id="linearGradient3521"
       xlink:href="#linearGradient6089" />
    <linearGradient
       y2="876.60889"
       x2="888.59961"
       y1="876.60889"
       x1="186.39453"
       gradientUnits="userSpaceOnUse"
       id="linearGradient3523"
       xlink:href="#linearGradient6089" />
    <linearGradient
       y2="944.85425"
       x2="467.42188"
       y1="944.85425"
       x1="211.40625"
       gradientUnits="userSpaceOnUse"
       id="linearGradient3527"
       xlink:href="#linearGradient6427" />
    <linearGradient
       y2="944.85425"
       x2="467.42188"
       y1="944.85425"
       x1="211.40625"
       gradientUnits="userSpaceOnUse"
       id="linearGradient890"
       xlink:href="#linearGradient6427" />
    <linearGradient
       y2="931.61133"
       x2="762.62695"
       y1="931.61133"
       x1="542.98828"
       gradientTransform="translate(394.33979,-389.1909)"
       gradientUnits="userSpaceOnUse"
       id="linearGradient906"
       xlink:href="#linearGradient6427" />
    <linearGradient
       y2="905.43945"
       x2="509.96094"
       y1="905.43945"
       x1="482.51953"
       gradientTransform="translate(392.33979,-351.0659)"
       gradientUnits="userSpaceOnUse"
       id="linearGradient950"
       xlink:href="#linearGradient6427" />
    <linearGradient
       y2="876.60889"
       x2="888.59961"
       y1="876.60889"
       x1="186.39453"
       gradientUnits="userSpaceOnUse"
       id="linearGradient952"
       xlink:href="#linearGradient6089" />
    <linearGradient
       y2="876.60889"
       x2="888.59961"
       y1="876.60889"
       x1="186.39453"
       gradientUnits="userSpaceOnUse"
       id="linearGradient954"
       xlink:href="#linearGradient6089" />
    <linearGradient
       y2="798.25195"
       x2="1027.3469"
       y1="798.25195"
       x1="724.39453"
       gradientTransform="translate(220.33979,-384.9409)"
       gradientUnits="userSpaceOnUse"
       id="linearGradient988"
       xlink:href="#linearGradient6089" />
    <linearGradient
       inkscape:collect="always"
       xlink:href="#linearGradient6089"
       id="linearGradient1868"
       gradientUnits="userSpaceOnUse"
       x1="186.39453"
       y1="876.60889"
       x2="888.59961"
       y2="876.60889" />
    <linearGradient
       inkscape:collect="always"
       xlink:href="#linearGradient6089"
       id="linearGradient1870"
       gradientUnits="userSpaceOnUse"
       x1="186.39453"
       y1="876.60889"
       x2="888.59961"
       y2="876.60889" />
    <linearGradient
       inkscape:collect="always"
       xlink:href="#linearGradient6089"
       id="linearGradient1872"
       gradientUnits="userSpaceOnUse"
       x1="186.39453"
       y1="876.60889"
       x2="888.59961"
       y2="876.60889" />
    <linearGradient
       inkscape:collect="always"
       xlink:href="#linearGradient6089"
       id="linearGradient1874"
       gradientUnits="userSpaceOnUse"
       gradientTransform="translate(220.33979,-384.9409)"
       x1="724.39453"
       y1="798.25195"
       x2="1027.3469"
       y2="798.25195" />
    <linearGradient
       inkscape:collect="always"
       xlink:href="#linearGradient6089"
       id="linearGradient1876"
       gradientUnits="userSpaceOnUse"
       gradientTransform="translate(220.33979,-384.9409)"
       x1="724.39453"
       y1="798.25195"
       x2="1027.3469"
       y2="798.25195" />
    <linearGradient
       inkscape:collect="always"
       xlink:href="#linearGradient6089"
       id="linearGradient1878"
       gradientUnits="userSpaceOnUse"
       gradientTransform="translate(220.33979,-384.9409)"
       x1="724.39453"
       y1="798.25195"
       x2="1027.3469"
       y2="798.25195" />
    <linearGradient
       inkscape:collect="always"
       xlink:href="#linearGradient6089"
       id="linearGradient1880"
       gradientUnits="userSpaceOnUse"
       gradientTransform="translate(220.33979,-384.9409)"
       x1="724.39453"
       y1="798.25195"
       x2="1027.3469"
       y2="798.25195" />
    <linearGradient
       inkscape:collect="always"
       xlink:href="#linearGradient6089"
       id="linearGradient1882"
       gradientUnits="userSpaceOnUse"
       gradientTransform="translate(220.33979,-384.9409)"
       x1="724.39453"
       y1="798.25195"
       x2="1027.3469"
       y2="798.25195" />
    <linearGradient
       inkscape:collect="always"
       xlink:href="#linearGradient6427"
       id="linearGradient1884"
       gradientUnits="userSpaceOnUse"
       x1="211.40625"
       y1="944.85425"
       x2="467.42188"
       y2="944.85425" />
    <linearGradient
       inkscape:collect="always"
       xlink:href="#linearGradient6427"
       id="linearGradient1886"
       gradientUnits="userSpaceOnUse"
       x1="211.40625"
       y1="944.85425"
       x2="467.42188"
       y2="944.85425" />
    <linearGradient
       inkscape:collect="always"
       xlink:href="#linearGradient6427"
       id="linearGradient1888"
       gradientUnits="userSpaceOnUse"
       x1="211.40625"
       y1="944.85425"
       x2="467.42188"
       y2="944.85425" />
    <linearGradient
       inkscape:collect="always"
       xlink:href="#linearGradient6427"
       id="linearGradient1890"
       gradientUnits="userSpaceOnUse"
       gradientTransform="translate(394.33979,-389.1909)"
       x1="542.98828"
       y1="931.61133"
       x2="762.62695"
       y2="931.61133" />
    <linearGradient
       inkscape:collect="always"
       xlink:href="#linearGradient6427"
       id="linearGradient1892"
       gradientUnits="userSpaceOnUse"
       gradientTransform="translate(394.33979,-389.1909)"
       x1="542.98828"
       y1="931.61133"
       x2="762.62695"
       y2="931.61133" />
    <linearGradient
       inkscape:collect="always"
       xlink:href="#linearGradient6427"
       id="linearGradient1894"
       gradientUnits="userSpaceOnUse"
       gradientTransform="translate(394.33979,-389.1909)"
       x1="542.98828"
       y1="931.61133"
       x2="762.62695"
       y2="931.61133" />
    <linearGradient
       inkscape:collect="always"
       xlink:href="#linearGradient6427"
       id="linearGradient1896"
       gradientUnits="userSpaceOnUse"
       gradientTransform="translate(394.33979,-389.1909)"
       x1="542.98828"
       y1="931.61133"
       x2="762.62695"
       y2="931.61133" />
    <linearGradient
       inkscape:collect="always"
       xlink:href="#linearGradient6427"
       id="linearGradient1898"
       gradientUnits="userSpaceOnUse"
       gradientTransform="translate(394.33979,-389.1909)"
       x1="542.98828"
       y1="931.61133"
       x2="762.62695"
       y2="931.61133" />
    <linearGradient
       inkscape:collect="always"
       xlink:href="#linearGradient6427"
       id="linearGradient1900"
       gradientUnits="userSpaceOnUse"
       gradientTransform="translate(394.33979,-389.1909)"
       x1="542.98828"
       y1="931.61133"
       x2="762.62695"
       y2="931.61133" />
    <linearGradient
       inkscape:collect="always"
       xlink:href="#linearGradient6427"
       id="linearGradient1902"
       gradientUnits="userSpaceOnUse"
       gradientTransform="translate(392.33979,-351.0659)"
       x1="482.51953"
       y1="905.43945"
       x2="509.96094"
       y2="905.43945" />
  </defs>
  <metadata
     id="metadata8939">
    <rdf:RDF>
      <cc:Work
         rdf:about="">
        <dc:format>image/svg+xml</dc:format>
        <dc:type
           rdf:resource="http://purl.org/dc/dcmitype/StillImage" />
      </cc:Work>
    </rdf:RDF>
  </metadata>
  <g
     id="layer1">
    <g
       transform="matrix(0.38689749,0,0,0.38689749,-16.980993,-15.364464)"
       id="g4265">
      <path
         style="fill:#00a8de"
         id="path4267"
         d="m 809.2,500.3 c 0,-5 -0.1,-10 -0.4,-15 -0.1,-1.7 -0.2,-3.4 -0.4,-5.2 -0.2,-3.2 -0.4,-6.4 -0.7,-9.6 -0.2,-2.1 -0.5,-4.1 -0.7,-6.2 -0.3,-2.8 -0.7,-5.6 -1.1,-8.3 -0.3,-2.2 -0.7,-4.5 -1.1,-6.7 -0.4,-2.5 -0.9,-5.1 -1.4,-7.6 -0.5,-2.3 -1,-4.7 -1.5,-7 -0.5,-2.3 -1,-4.7 -1.6,-7 -0.6,-2.4 -1.2,-4.9 -1.9,-7.3 -0.6,-2.1 -1.2,-4.3 -1.8,-6.4 -0.8,-2.5 -1.5,-5.1 -2.4,-7.6 -0.6,-1.9 -1.3,-3.8 -2,-5.8 -0.9,-2.6 -1.9,-5.3 -2.8,-7.9 -0.6,-1.7 -1.3,-3.4 -2,-5.1 -1.1,-2.8 -2.2,-5.5 -3.4,-8.2 -0.6,-1.4 -1.2,-2.8 -1.9,-4.2 -1.3,-3 -2.7,-5.9 -4.1,-8.8 -0.5,-1 -1,-1.9 -1.4,-2.8 -1.7,-3.3 -3.3,-6.5 -5.1,-9.8 -0.1,-0.1 -0.1,-0.2 -0.2,-0.3 -10.9,-19.6 -24,-38 -38.8,-54.6 -34.5,9.9 -51.8,59.6 -51.8,59.6 5.6,15 -20.7,41.4 -20.7,41.4 l -67.7,65.8 6,67 10.2,-9 c 5.2,-4.6 13,-4.4 17.3,0.6 4.4,4.9 3.7,12.7 -1.5,17.3 l -23.3,20.7 4.7,53.1 12.2,-10.8 c 5.2,-4.6 13,-4.3 17.4,0.6 4.4,4.9 3.7,12.7 -1.5,17.3 l -25.3,22.5 6.5,72.8 c 0,0 -16.9,43.2 -30.1,22.6 -13.2,-20.7 -58.3,-201.2 -58.3,-201.2 l -152.5,82.6 c -43.1,29.4 -83.9,70.9 -59.6,112.6 1.5,1.2 3,2.5 4.5,3.7 0.3,0.2 0.5,0.4 0.8,0.6 3.6,2.9 7.3,5.6 11.1,8.3 0.4,0.3 0.8,0.6 1.2,0.8 3.6,2.6 7.3,5 11.1,7.4 0.5,0.4 1.1,0.7 1.6,1 3.6,2.3 7.3,4.5 11,6.6 0.7,0.4 1.4,0.8 2.1,1.2 3.6,2 7.2,3.9 10.9,5.8 0.9,0.4 1.7,0.9 2.6,1.3 3.5,1.8 7.1,3.4 10.7,5.1 1,0.5 2.1,1 3.1,1.4 3.5,1.5 7,3 10.6,4.4 1.2,0.5 2.4,1 3.6,1.4 3.4,1.3 6.9,2.5 10.4,3.7 1.4,0.5 2.8,1 4.2,1.4 3.4,1.1 6.8,2.1 10.2,3 1.5,0.4 3.1,0.9 4.6,1.3 3.3,0.9 6.7,1.7 10.1,2.4 1.7,0.4 3.3,0.8 5,1.2 3.3,0.7 6.7,1.3 10,1.9 1.8,0.3 3.5,0.7 5.3,0.9 3.4,0.5 6.7,0.9 10.1,1.3 1.8,0.2 3.6,0.5 5.4,0.7 3.6,0.4 7.3,0.6 10.9,0.9 1.6,0.1 3.2,0.3 4.8,0.3 5.3,0.3 10.6,0.4 15.9,0.4 167.3,0.3 302.9,-135.3 302.9,-302.5 z" />
      <polygon
         style="fill:#ffffff"
         id="polygon4269"
         points="" />
      <path
         style="fill:#ff9f36"
         id="path4271"
         d="m 465.6,913.5 c 44,2.7 11.5,-96.3 11.5,-96.3 0,0 -55.5,93.5 -11.5,96.3 z" />
      <path
         style="fill:#ff9f36"
         id="path4273"
         d="m 428.6,537.5 c 0.5,-0.1 38,-30.3 38,-30.3 0,0 18.8,-13.2 -24.4,-32 -43.2,-18.8 -159.8,-63.9 -159.8,-63.9 0,0 -28.2,-37.6 26.3,-30.1 14.7,2 39.1,6 67,10.6 l 27,-23.9 c 4.8,-4.2 11.8,-4 15.8,0.5 4,4.5 3.4,11.5 -1.4,15.8 l -13.9,12.3 c 18.9,3.2 38.3,6.6 56.7,9.8 l 26.4,-23.4 c 4.8,-4.2 11.8,-4 15.8,0.5 4,4.5 3.4,11.6 -1.4,15.8 l -13.5,11.9 c 36.7,6.5 63.9,11.4 63.9,11.4 L 647,356.7 c 0,0 28.2,-13.2 33.8,1.9 0,0 17.3,-49.7 51.8,-59.6 C 677.1,236.7 596.4,197.4 506.4,197.4 339.1,197.4 203.6,333 203.6,500.2 c 0,20 2,39.6 5.7,58.5 21.4,21 102.6,84 219.3,-21.2 z" />
      <path
         style="fill:#ff9f36"
         id="path4275"
         d="m 303.5,863.7 c 39.2,20.2 49.1,-83.6 49.1,-83.6 0,0 -88.4,63.4 -49.1,83.6 z" />
      <path
         style="fill:#ff9f36"
         id="path4277"
         d="m 793.8,629.5 c 0,0 70.2,83.1 87.2,42.4 17.1,-40.7 -87.2,-42.4 -87.2,-42.4 z" />
      <path
         style="fill:#ff9f36"
         id="path4279"
         d="m 174.8,753.1 c 27.9,34.2 78.5,-57 78.5,-57 0,0 -106.4,22.8 -78.5,57 z" />
      <path
         style="fill:#ff9f36"
         id="path4281"
         d="m 634.2,894.1 c 41.4,-15.1 -28.1,-92.8 -28.1,-92.8 0,0 -13.3,107.9 28.1,92.8 z" />
      <path
         style="fill:#ff9f36"
         id="path4283"
         d="m 718,735 c 0,0 31,104.3 62.9,73.8 C 812.8,778.3 718,735 718,735 Z" />
      <path
         style="fill:#ff9f36"
         id="path4285"
         d="m 341.8,229.2 c 0,0 -14.4,-107.8 -50.6,-82.7 -36.4,25.1 50.6,82.7 50.6,82.7 z" />
      <path
         style="fill:#ff9f36"
         id="path4287"
         d="m 101.2,600.3 c 11.8,42.5 94.7,-20.7 94.7,-20.7 0,0 -106.5,-21.8 -94.7,20.7 z" />
      <path
         style="fill:#ff9f36"
         id="path4289"
         d="m 789,200.2 c -32.9,-29.4 -68.6,68.5 -68.6,68.5 0,0 101.5,-39 68.6,-68.5 z" />
      <path
         style="fill:#ff9f36"
         id="path4291"
         d="m 476.7,87.1 c -43.9,4.2 3.7,96.9 3.7,96.9 0,0 40.3,-101 -3.7,-96.9 z" />
      <path
         style="fill:#ff9f36"
         id="path4293"
         d="m 885.5,339.8 c -18.3,-40.1 -90.3,35.2 -90.3,35.2 0,0 108.6,4.9 90.3,-35.2 z" />
      <path
         style="fill:#ff9f36"
         id="path4295"
         d="m 644.7,111 c -41.9,-13.8 -35.5,90.2 -35.5,90.2 0,0 77.4,-76.4 35.5,-90.2 z" />
      <path
         style="fill:#ff9f36"
         id="path4297"
         d="m 821.1,502.4 c 0,0 97.6,48 96.9,3.9 -0.7,-44.1 -96.9,-3.9 -96.9,-3.9 z" />
      <path
         style="fill:#ff9f36"
         id="path4299"
         d="m 236.8,328.4 c 0,0 -56.4,-93 -79.5,-55.5 -23.2,37.6 79.5,55.5 79.5,55.5 z" />
      <path
         style="fill:#ff9f36"
         id="path4301"
         d="m 190.1,449.7 c 0,0 -88.9,-62.6 -95.1,-19 -6.1,43.7 95.1,19 95.1,19 z" />
    </g>
    <g
       id="flowRoot6047"
       style="font-style:normal;font-weight:normal;line-height:0.01%;font-family:sans-serif;letter-spacing:0px;word-spacing:0px;fill:url(#linearGradient9658);fill-opacity:1;stroke:none;stroke-width:1px;stroke-linecap:butt;stroke-linejoin:miter;stroke-opacity:1"
       transform="translate(210.06104,-734.00447)"
       aria-label="Happy">
      <path
         id="path1026"
         style="font-style:normal;font-variant:normal;font-weight:normal;font-stretch:normal;font-size:115px;line-height:1.25;font-family:'Harabara Mais Bold';-inkscape-font-specification:'Harabara Mais Bold, ';letter-spacing:-0.800001px;fill:url(#linearGradient1868);fill-opacity:1"
         d="m 186.04297,888.80534 h 16.17187 v -34.58985 h 32.11914 v 34.58985 h 16.17188 v -78.16407 h -16.17188 v 29.19922 h -32.11914 v -29.19922 h -8.08593 c -2.2461,0 -4.26758,0.89844 -5.83985,2.47071 -1.57226,1.79687 -2.24609,3.59375 -2.24609,5.83984 z" />
      <path
         id="path1028"
         style="font-style:normal;font-variant:normal;font-weight:normal;font-stretch:normal;font-size:115px;line-height:1.25;font-family:'Harabara Mais Bold';-inkscape-font-specification:'Harabara Mais Bold, ';letter-spacing:-0.800001px;fill:url(#linearGradient1870);fill-opacity:1"
         d="m 292.15703,858.25846 v 5.61523 c 0,4.49219 -1.34766,7.86133 -3.59375,10.10743 -2.69531,2.4707 -6.06445,3.59375 -10.10742,3.59375 -4.94141,0 -7.41211,-2.2461 -7.63672,-7.1875 0,-4.49219 2.91992,-7.1875 9.20898,-8.53516 4.49219,-0.89844 8.53516,-2.02148 12.12891,-3.59375 z m 3.59375,27.85156 c 7.41211,-4.04297 11.23047,-11.23047 11.23047,-21.5625 v -20.66406 c -0.44922,-11.23047 -8.98438,-16.8457 -25.60547,-16.8457 -14.15039,0 -22.01172,5.61523 -23.8086,16.8457 h 15.27344 c 0.67383,-2.69531 3.81836,-4.26758 9.20899,-4.26758 6.28906,0 9.43359,1.79688 9.88281,5.16602 0,3.36914 -3.36914,5.39062 -9.88281,6.06445 -9.4336,0.89844 -15.94727,2.91992 -19.99024,6.06445 -4.04297,3.14454 -6.28906,7.86133 -6.28906,13.92579 0,8.08593 3.14453,13.47656 9.43359,16.62109 4.04297,2.24609 9.20899,2.91992 15.27344,2.4707 6.06445,-0.44922 11.23047,-1.57226 15.27344,-3.81836 z" />
      <path
         id="path1030"
         style="font-style:normal;font-variant:normal;font-weight:normal;font-stretch:normal;font-size:115px;line-height:1.25;font-family:'Harabara Mais Bold';-inkscape-font-specification:'Harabara Mais Bold, ';letter-spacing:-0.800001px;fill:url(#linearGradient1872);fill-opacity:1"
         d="m 328.86679,904.97721 c 0,5.16602 -2.69531,7.63672 -7.63672,7.63672 h -7.63672 V 854.4401 c 0.67383,-17.96875 10.10743,-27.17773 28.52539,-27.17773 18.86719,0 28.30079,10.33203 28.30079,30.77148 0,20.66406 -8.08594,31.44531 -24.25782,31.89453 -7.63672,0 -13.47656,-3.14453 -17.29492,-9.43359 z m 25.83008,-46.26953 c 0,-12.12891 -4.49219,-18.41797 -13.02734,-18.41797 -8.75977,0 -13.02735,6.28906 -12.80274,18.41797 0.44922,11.67969 4.7168,17.51953 13.02734,17.51953 8.08594,0 12.35352,-5.83984 12.80274,-17.51953 z" />
      <path
         id="path1032"
         style="font-style:normal;font-variant:normal;font-weight:normal;font-stretch:normal;font-size:115px;line-height:1.25;font-family:'Harabara Mais Bold';-inkscape-font-specification:'Harabara Mais Bold, ';letter-spacing:-0.800001px;fill:url(#linearGradient954);fill-opacity:1"
         d="m 392.08046,904.97721 c 0,5.16602 -2.69531,7.63672 -7.63672,7.63672 h -7.63672 V 854.4401 c 0.67383,-17.96875 10.10742,-27.17773 28.52539,-27.17773 18.86719,0 28.30078,10.33203 28.30078,30.77148 0,20.66406 -8.08593,31.44531 -24.25781,31.89453 -7.63672,0 -13.47656,-3.14453 -17.29492,-9.43359 z m 25.83008,-46.26953 c 0,-12.12891 -4.49219,-18.41797 -13.02735,-18.41797 -8.75976,0 -13.02734,6.28906 -12.80273,18.41797 0.44922,11.67969 4.7168,17.51953 13.02734,17.51953 8.08594,0 12.35352,-5.83984 12.80274,-17.51953 z" />
      <path
         id="path1034"
         style="font-size:115px;letter-spacing:-1.33px;fill:url(#linearGradient952)"
         d="m 446.30975,912.16471 c 0.44922,0.44922 2.47071,0.44922 6.51368,0.44922 5.83984,0 10.10742,-0.89844 13.25195,-2.91992 2.4707,-1.79688 4.7168,-5.16602 6.73828,-10.55664 l 24.0332,-71.20118 h -10.78125 c -4.04297,0 -6.28906,1.79688 -7.1875,5.39063 l -10.55664,36.83594 -12.1289,-42.22657 h -17.29493 l 20.66407,59.52149 c 2.24609,8.08594 -0.67383,12.12891 -8.98438,12.12891 h -4.26758 z" />
    </g>
    <flowRoot
       style="font-style:normal;font-weight:normal;line-height:0.01%;font-family:sans-serif;letter-spacing:0px;word-spacing:0px;fill:#000000;fill-opacity:1;stroke:none;stroke-width:1px;stroke-linecap:butt;stroke-linejoin:miter;stroke-opacity:1"
       id="flowRoot6095"
       xml:space="preserve"
       transform="translate(674.80408,-521.86948)"><flowRegion
         id="flowRegion6097"><rect
           y="840"
           x="560"
           height="200"
           width="520"
           id="rect6099" /></flowRegion><flowPara
         style="font-size:40px;line-height:1.25"
         id="flowPara6101"> </flowPara></flowRoot>
    <flowRoot
       style="font-style:normal;font-weight:normal;line-height:0.01%;font-family:sans-serif;letter-spacing:0px;word-spacing:0px;fill:#000000;fill-opacity:1;stroke:none;stroke-width:1px;stroke-linecap:butt;stroke-linejoin:miter;stroke-opacity:1"
       id="flowRoot6107"
       xml:space="preserve"
       transform="translate(674.80408,-521.86948)"><flowRegion
         id="flowRegion6109"><rect
           y="840"
           x="520"
           height="80"
           width="200"
           id="rect6111" /></flowRegion><flowPara
         style="font-size:40px;line-height:1.25"
         id="flowPara6113"> </flowPara></flowRoot>
    <flowRoot
       style="font-style:normal;font-weight:normal;line-height:0.01%;font-family:sans-serif;letter-spacing:0px;word-spacing:0px;fill:#000000;fill-opacity:1;stroke:none;stroke-width:1px;stroke-linecap:butt;stroke-linejoin:miter;stroke-opacity:1"
       id="flowRoot6279"
       xml:space="preserve"
       transform="translate(674.80408,-521.86948)"><flowRegion
         id="flowRegion6281"><rect
           y="800"
           x="520"
           height="160"
           width="480"
           id="rect6283" /></flowRegion><flowPara
         style="font-size:40px;line-height:1.25"
         id="flowPara6285"> </flowPara></flowRoot>
    <g
       id="text6287"
       style="font-style:normal;font-weight:normal;line-height:0%;font-family:sans-serif;letter-spacing:0px;word-spacing:0px;fill:url(#linearGradient988);fill-opacity:1;stroke:none;stroke-width:0;stroke-linecap:butt;stroke-linejoin:miter;stroke-miterlimit:4;stroke-dasharray:none;stroke-opacity:1"
       aria-label="World"
       transform="translate(-192.27875,-300.28866)">
      <path
         id="path1015"
         style="font-style:normal;font-variant:normal;font-weight:normal;font-stretch:normal;font-size:115px;line-height:1.25;font-family:'Harabara Mais Bold';-inkscape-font-specification:'Harabara Mais Bold, ';letter-spacing:0px;word-spacing:0px;fill:url(#linearGradient1874);fill-opacity:1;stroke-width:0;stroke-miterlimit:4;stroke-dasharray:none"
         d="m 966.61902,454.53908 h 15.49805 l 12.1289,-59.9707 12.12893,59.9707 h 15.2734 l 22.2363,-78.16406 h -9.8828 c -4.0429,0 -6.7383,2.02148 -8.0859,6.06445 l -11.9043,48.96485 -11.2305,-55.0293 h -17.07028 l -11.45508,55.0293 -13.25196,-55.0293 h -16.62109 z" />
      <path
         id="path1017"
         style="font-style:normal;font-variant:normal;font-weight:normal;font-stretch:normal;font-size:115px;line-height:1.25;font-family:'Harabara Mais Bold';-inkscape-font-specification:'Harabara Mais Bold, ';letter-spacing:0px;word-spacing:0px;fill:url(#linearGradient1876);fill-opacity:1;stroke-width:0;stroke-miterlimit:4;stroke-dasharray:none"
         d="m 1070.1639,392.7715 c -18.4179,0 -27.6269,10.55664 -27.6269,31.66993 0,21.11328 9.209,31.44531 27.6269,31.44531 18.418,0 27.627,-10.33203 27.627,-31.44531 0,-21.11329 -9.209,-31.66993 -27.627,-31.66993 z m 0,13.47657 c 7.6368,0 11.6797,6.06445 11.6797,17.74414 -0.2246,12.1289 -4.2676,18.19336 -11.9043,18.19336 -7.8613,0 -11.9043,-5.83985 -11.9043,-17.74414 0,-12.12891 4.043,-18.19336 12.1289,-18.19336 z" />
      <path
         id="path1019"
         style="font-style:normal;font-variant:normal;font-weight:normal;font-stretch:normal;font-size:115px;line-height:1.25;font-family:'Harabara Mais Bold';-inkscape-font-specification:'Harabara Mais Bold, ';letter-spacing:0px;word-spacing:0px;fill:url(#linearGradient1878);fill-opacity:1;stroke-width:0;stroke-miterlimit:4;stroke-dasharray:none"
         d="m 1105.203,454.53908 h 15.498 v -31.66992 c 0,-8.75977 4.2676,-13.25195 12.8028,-13.25195 h 5.166 v -15.94727 h -2.2461 c -20.4394,0 -30.7715,9.88281 -31.2207,29.42383 z" />
      <path
         id="path1021"
         style="font-style:normal;font-variant:normal;font-weight:normal;font-stretch:normal;font-size:115px;line-height:1.25;font-family:'Harabara Mais Bold';-inkscape-font-specification:'Harabara Mais Bold, ';letter-spacing:0px;word-spacing:0px;fill:url(#linearGradient1880);fill-opacity:1;stroke-width:0;stroke-miterlimit:4;stroke-dasharray:none"
         d="m 1145.8573,376.37502 v 78.16406 h 15.2734 v -70.75195 c 0,-2.02149 -0.8984,-3.81836 -2.2461,-5.16602 -1.5722,-1.34765 -3.3691,-2.24609 -5.166,-2.24609 z" />
      <path
         id="path1023"
         style="font-style:normal;font-variant:normal;font-weight:normal;font-stretch:normal;font-size:115px;line-height:1.25;font-family:'Harabara Mais Bold';-inkscape-font-specification:'Harabara Mais Bold, ';letter-spacing:0px;word-spacing:0px;fill:url(#linearGradient1882);fill-opacity:1;stroke-width:0;stroke-miterlimit:4;stroke-dasharray:none"
         d="m 1210.7694,423.99221 c 0,12.35351 -4.4922,18.41797 -13.0273,18.41797 -8.7598,0 -13.0274,-6.06446 -12.8028,-18.41797 0.4492,-11.67969 4.7168,-17.51953 13.0274,-17.51953 8.0859,0 12.3535,5.83984 12.8027,17.51953 z m 0,-47.61719 v 25.83008 c -4.043,-6.28906 -9.6582,-9.4336 -17.2949,-9.4336 -16.1719,0.67383 -24.2578,11.23047 -24.2578,31.89454 0,20.21484 9.4336,30.54687 28.3008,30.77148 18.8671,0.22461 28.5253,-8.75977 28.5253,-27.17773 v -35.9375 -8.31055 c 0,-2.02149 -0.8984,-3.81836 -2.246,-5.39063 -1.5723,-1.34765 -3.3692,-2.24609 -5.3907,-2.24609 z" />
    </g>
    <g
       id="flowRoot6419"
       style="font-style:normal;font-weight:normal;line-height:0.01%;font-family:sans-serif;letter-spacing:0px;word-spacing:0px;fill:url(#linearGradient9670);fill-opacity:1;stroke:none;stroke-width:1px;stroke-linecap:butt;stroke-linejoin:miter;stroke-opacity:1"
       transform="translate(242.06104,-730.36249)"
       aria-label="Work">
      <path
         id="path990"
         style="font-style:normal;font-variant:normal;font-weight:normal;font-stretch:normal;font-size:90px;line-height:1.25;font-family:'Harabara Mais Bold';-inkscape-font-specification:'Harabara Mais Bold, ';letter-spacing:-1px;fill:url(#linearGradient1884);fill-opacity:1"
         d="m 230.56641,1000.4563 h 12.1289 l 9.49219,-46.93354 9.49219,46.93354 h 11.95312 l 17.40235,-61.17183 h -7.73438 c -3.16406,0 -5.27344,1.58204 -6.32812,4.7461 l -9.31641,38.32031 -8.78906,-43.06641 h -13.35938 l -8.96484,43.06641 -10.3711,-43.06641 h -13.00781 z" />
      <path
         id="path992"
         style="font-style:normal;font-variant:normal;font-weight:normal;font-stretch:normal;font-size:90px;line-height:1.25;font-family:'Harabara Mais Bold';-inkscape-font-specification:'Harabara Mais Bold, ';letter-spacing:-1px;fill:url(#linearGradient1886);fill-opacity:1"
         d="m 310.60156,952.11651 c -14.41406,0 -21.62109,8.26171 -21.62109,24.78515 0,16.52344 7.20703,24.60934 21.62109,24.60934 14.41406,0 21.6211,-8.0859 21.6211,-24.60934 0,-16.52344 -7.20704,-24.78515 -21.6211,-24.78515 z m 0,10.54687 c 5.97656,0 9.14063,4.74609 9.14063,13.88672 -0.17578,9.49219 -3.33985,14.23828 -9.31641,14.23828 -6.15234,0 -9.31641,-4.57031 -9.31641,-13.88672 0,-9.49219 3.16407,-14.23828 9.49219,-14.23828 z" />
      <path
         id="path994"
         style="font-style:normal;font-variant:normal;font-weight:normal;font-stretch:normal;font-size:90px;line-height:1.25;font-family:'Harabara Mais Bold';-inkscape-font-specification:'Harabara Mais Bold, ';letter-spacing:-1px;fill:url(#linearGradient1888);fill-opacity:1"
         d="m 337.02344,1000.4563 h 12.1289 v -24.78511 c 0,-6.85547 3.33985,-10.37109 10.01953,-10.37109 h 4.04297 v -12.48047 h -1.75781 c -15.99609,0 -24.08203,7.73438 -24.43359,23.02734 z" />
      <path
         id="path996"
         style="font-style:normal;font-variant:normal;font-weight:normal;font-stretch:normal;font-size:90px;line-height:1.25;font-family:'Harabara Mais Bold';-inkscape-font-specification:'Harabara Mais Bold, ';letter-spacing:-1px;fill:url(#linearGradient890);fill-opacity:1"
         d="m 379.79297,971.45244 v -26.36718 c 0,-1.58204 -0.70313,-2.98829 -1.75781,-4.04297 -1.23047,-1.05469 -2.63672,-1.75782 -4.04297,-1.75782 h -6.15235 v 61.17183 h 11.95313 v -17.40229 c 0,-1.23047 0.52734,-1.9336 1.93359,-2.28516 1.40625,0 2.98828,1.40625 4.57031,4.04297 l 8.4375,15.64448 h 14.41407 l -16.69922,-28.30073 16.52344,-17.57813 h -14.41407 z" />
    </g>
    <g
       id="text6609"
       style="font-style:normal;font-weight:normal;line-height:0%;font-family:sans-serif;letter-spacing:0px;word-spacing:0px;fill:url(#linearGradient906);fill-opacity:1;stroke:none;stroke-width:1px;stroke-linecap:butt;stroke-linejoin:miter;stroke-opacity:1"
       aria-label="Travel"
       transform="translate(-192.27875,-300.28866)">
      <path
         id="path1002"
         style="font-style:normal;font-variant:normal;font-weight:normal;font-stretch:normal;font-size:90px;line-height:1.25;font-family:'Harabara Mais Bold';-inkscape-font-specification:'Harabara Mais Bold, ';fill:url(#linearGradient1890);fill-opacity:1"
         d="m 955.60925,570.80908 h 12.48047 v -50.27344 h 18.10547 v -10.89843 h -42.36328 c -1.75781,0 -3.33984,0.70312 -4.57031,1.93359 -1.23047,1.40625 -1.75782,2.8125 -1.75782,4.57031 v 4.39453 h 18.10547 z" />
      <path
         id="path1004"
         style="font-style:normal;font-variant:normal;font-weight:normal;font-stretch:normal;font-size:90px;line-height:1.25;font-family:'Harabara Mais Bold';-inkscape-font-specification:'Harabara Mais Bold, ';fill:url(#linearGradient1892);fill-opacity:1"
         d="m 986.72253,570.80908 h 12.12891 v -24.78515 c 0,-6.85547 3.33986,-10.3711 10.01956,-10.3711 h 4.0429 v -12.48047 h -1.7578 c -15.99607,0 -24.082,7.73438 -24.43357,23.02735 z" />
      <path
         id="path1006"
         style="font-style:normal;font-variant:normal;font-weight:normal;font-stretch:normal;font-size:90px;line-height:1.25;font-family:'Harabara Mais Bold';-inkscape-font-specification:'Harabara Mais Bold, ';fill:url(#linearGradient1894);fill-opacity:1"
         d="m 1045.9608,546.90283 v 4.39453 c 0,3.51563 -1.0547,6.15235 -2.8125,7.91016 -2.1094,1.93359 -4.7461,2.8125 -7.9101,2.8125 -3.8672,0 -5.8008,-1.75781 -5.9766,-5.625 0,-3.51563 2.2852,-5.625 7.207,-6.67969 3.5157,-0.70312 6.6797,-1.58203 9.4922,-2.8125 z m 2.8125,21.79688 c 5.8008,-3.16407 8.7891,-8.78907 8.7891,-16.875 v -16.17188 c -0.3516,-8.78906 -7.0313,-13.18359 -20.0391,-13.18359 -11.0742,0 -17.2265,4.39453 -18.6328,13.18359 h 11.9531 c 0.5274,-2.10937 2.9883,-3.33984 7.2071,-3.33984 4.9218,0 7.3828,1.40625 7.7343,4.04297 0,2.63672 -2.6367,4.21875 -7.7343,4.74609 -7.3829,0.70313 -12.4805,2.28516 -15.6446,4.74609 -3.164,2.46094 -4.9218,6.15235 -4.9218,10.89844 0,6.32813 2.4609,10.54688 7.3828,13.00781 3.164,1.75782 7.207,2.28516 11.9531,1.9336 4.7461,-0.35156 8.7891,-1.23047 11.9531,-2.98828 z" />
      <path
         id="path1008"
         style="font-style:normal;font-variant:normal;font-weight:normal;font-stretch:normal;font-size:90px;line-height:1.25;font-family:'Harabara Mais Bold';-inkscape-font-specification:'Harabara Mais Bold, ';fill:url(#linearGradient1896);fill-opacity:1"
         d="m 1090.0819,570.80908 16.875,-47.63672 h -9.3164 c -2.9883,0 -4.9219,1.40625 -5.8008,4.21875 l -8.2617,29.17969 -9.668,-33.39844 h -13.1836 l 16.6993,47.63672 z" />
      <path
         id="path1010"
         style="font-style:normal;font-variant:normal;font-weight:normal;font-stretch:normal;font-size:90px;line-height:1.25;font-family:'Harabara Mais Bold';-inkscape-font-specification:'Harabara Mais Bold, ';fill:url(#linearGradient1898);fill-opacity:1"
         d="m 1142.9921,556.21924 c -1.7578,0 -2.9883,0.70312 -4.043,1.75781 -2.4609,2.28516 -4.9219,3.33984 -7.7344,3.33984 -5.9765,0 -9.1406,-3.51562 -9.4922,-10.89843 h 30.7618 c 0.8789,-18.63282 -6.1524,-27.94922 -21.2696,-27.94922 -14.5898,0.17578 -21.7969,8.26172 -21.7969,24.43359 0,16.17188 7.2071,24.60938 21.6211,24.96094 5.2735,0 9.8438,-1.23047 13.711,-3.86719 3.164,-2.46094 5.625,-6.32812 7.0312,-11.77734 z m -21.0938,-14.41406 c 0.8789,-6.32813 3.8672,-9.49219 9.1406,-9.49219 5.0977,0 8.086,3.16406 8.7891,9.49219 z" />
      <path
         id="path1012"
         style="font-style:normal;font-variant:normal;font-weight:normal;font-stretch:normal;font-size:90px;line-height:1.25;font-family:'Harabara Mais Bold';-inkscape-font-specification:'Harabara Mais Bold, ';fill:url(#linearGradient1900);fill-opacity:1"
         d="m 1158.1093,509.63721 v 61.17187 h 11.9531 v -55.37109 c 0,-1.58203 -0.7031,-2.98828 -1.7578,-4.04297 -1.2305,-1.05469 -2.6368,-1.75781 -4.043,-1.75781 z" />
    </g>
    <g
       id="text6647"
       style="font-style:normal;font-weight:normal;line-height:0%;font-family:sans-serif;letter-spacing:0px;word-spacing:0px;fill:url(#linearGradient950);fill-opacity:1;stroke:none;stroke-width:1px;stroke-linecap:butt;stroke-linejoin:miter;stroke-opacity:1"
       aria-label="&amp;"
       transform="translate(-192.27875,-300.28866)">
      <path
         id="path999"
         style="font-style:normal;font-variant:normal;font-weight:normal;font-stretch:normal;font-size:65px;line-height:1.25;font-family:'Harabara Mais Bold';-inkscape-font-specification:'Harabara Mais Bold, ';fill:url(#linearGradient1902);fill-opacity:1"
         d="m 888.08191,549.25635 8.125,10.02929 c -1.77734,2.15821 -4.18945,3.17383 -6.98242,3.17383 -4.18946,-0.2539 -6.22071,-2.28515 -6.22071,-6.09375 0,-2.28515 0.88868,-4.0625 2.79297,-5.45898 z m 2.53906,-9.52149 -1.52344,-1.90429 c -1.26953,-1.39649 -1.77734,-2.66602 -1.77734,-3.93555 0,-2.28516 1.26953,-3.42773 3.68164,-3.42773 2.28516,0 3.42774,1.14257 3.55469,3.30078 0,1.14257 -0.25391,2.1582 -0.76172,2.91992 -0.50781,0.88867 -1.52344,1.9043 -2.91992,2.91992 z m -6.85547,3.93555 c -3.30078,1.9043 -5.83984,3.93555 -7.36328,5.9668 -1.52344,2.03125 -2.1582,4.44336 -2.1582,7.36328 0,3.93555 1.26953,7.10937 3.93555,9.39453 2.1582,1.77734 4.82421,2.79297 7.99804,3.04687 3.04688,0.25391 6.09375,0.12696 8.88672,-0.63476 1.01563,-0.25391 1.9043,-0.63477 2.91992,-1.39649 1.01563,-0.63476 1.9043,-1.39648 2.91992,-2.28515 l 3.04688,3.68164 h 10.41016 l -8.25196,-9.90234 c 3.04688,-3.42774 4.57032,-6.72852 4.82422,-10.0293 0.12695,-2.28516 -0.76172,-3.42774 -2.79297,-3.42774 h -4.69726 c -0.50782,3.17383 -1.14258,5.71289 -2.15821,7.49024 l -6.34765,-7.99805 c 2.41211,-1.52344 4.18945,-3.17383 5.45898,-5.07812 1.14258,-1.77735 1.77735,-3.8086 1.77735,-6.09375 0,-2.91993 -1.01563,-5.33203 -3.04688,-7.10938 -2.03125,-1.77734 -4.82422,-2.66601 -8.125,-2.66601 -3.55469,0.12695 -6.34766,1.14257 -8.50586,2.91992 -2.28515,2.03125 -3.30078,4.69726 -3.04687,7.74414 0.12695,2.28515 1.01562,4.44336 2.53906,6.72851 z" />
    </g>
  </g>
</svg>
